<?xml version="1.0" encoding="UTF-8"?>
<svg xmlns="http://www.w3.org/2000/svg" xmlns:xlink="http://www.w3.org/1999/xlink" width="512px" height="512px" viewBox="0 0 384 384" version="1.1">
<g id="surface1">
<path style=" stroke:none;fill-rule:nonzero;fill:rgb(60%,60%,60%);fill-opacity:1;" d="M 192 174.832031 C 170.625 174.832031 153.304688 192.304688 153.304688 213.867188 C 153.304688 235.441406 170.625 252.902344 192 252.902344 C 213.375 252.902344 230.695312 235.441406 230.695312 213.867188 C 230.695312 192.304688 213.375 174.832031 192 174.832031 Z M 192 174.832031 "/>
<path style=" stroke:none;fill-rule:nonzero;fill:rgb(60%,60%,60%);fill-opacity:1;" d="M 373.03125 105.222656 C 366.292969 98.402344 356.800781 94.113281 346.441406 94.113281 L 305.789062 94.113281 C 302.519531 94.125 299.460938 92.167969 298.054688 89.003906 L 285.878906 61.746094 C 279.855469 48.234375 266.460938 39.445312 251.601562 39.445312 L 132.398438 39.445312 C 117.539062 39.445312 104.144531 48.234375 98.109375 61.734375 L 98.109375 61.746094 L 85.945312 89.003906 C 84.539062 92.167969 81.480469 94.125 78.210938 94.113281 L 37.558594 94.113281 C 27.199219 94.113281 17.695312 98.402344 10.945312 105.222656 C 4.195312 112.019531 0 121.523438 0 131.871094 L 0 306.808594 C 0 317.15625 4.195312 326.660156 10.945312 333.457031 C 17.695312 340.277344 27.199219 344.566406 37.558594 344.554688 L 346.441406 344.554688 C 356.800781 344.566406 366.292969 340.277344 373.03125 333.457031 C 379.804688 326.660156 384 317.15625 384 306.808594 L 384 131.871094 C 384 121.523438 379.804688 112.007812 373.03125 105.222656 Z M 354.960938 306.808594 C 354.960938 309.292969 354 311.402344 352.429688 313.019531 C 350.8125 314.601562 348.796875 315.515625 346.441406 315.527344 L 37.558594 315.527344 C 35.191406 315.515625 33.164062 314.601562 31.570312 313.019531 C 30 311.402344 29.039062 309.292969 29.039062 306.808594 L 29.039062 131.871094 C 29.039062 129.386719 30 127.277344 31.570312 125.660156 C 33.164062 124.066406 35.191406 123.164062 37.558594 123.152344 L 78.210938 123.152344 C 93.046875 123.152344 106.453125 114.351562 112.476562 100.828125 L 124.617188 73.582031 C 126.046875 70.429688 129.09375 68.472656 132.398438 68.472656 L 251.601562 68.472656 C 254.90625 68.472656 257.953125 70.429688 259.371094 73.570312 L 271.535156 100.839844 C 277.546875 114.351562 290.953125 123.152344 305.789062 123.152344 L 346.441406 123.152344 C 348.796875 123.164062 350.8125 124.066406 352.429688 125.660156 C 354 127.277344 354.960938 129.398438 354.960938 131.871094 Z M 354.960938 306.808594 "/>
<path style=" stroke:none;fill-rule:nonzero;fill:rgb(60%,60%,60%);fill-opacity:1;" d="M 192 128.203125 C 168.515625 128.191406 147.1875 137.835938 131.847656 153.328125 C 116.484375 168.820312 106.96875 190.277344 106.980469 213.867188 C 106.96875 237.457031 116.484375 258.9375 131.847656 274.40625 C 147.1875 289.910156 168.515625 299.542969 192 299.542969 C 215.472656 299.542969 236.8125 289.910156 252.152344 274.40625 C 267.515625 258.9375 277.03125 237.457031 277.019531 213.867188 C 277.03125 190.277344 267.515625 168.820312 252.152344 153.328125 C 236.8125 137.835938 215.472656 128.191406 192 128.203125 Z M 236.273438 258.667969 C 224.894531 270.140625 209.308594 277.183594 192 277.183594 C 174.679688 277.183594 159.105469 270.140625 147.714844 258.667969 C 136.359375 247.195312 129.339844 231.421875 129.328125 213.867188 C 129.339844 196.324219 136.359375 180.550781 147.714844 169.066406 C 159.105469 157.59375 174.679688 150.5625 192 150.550781 C 209.308594 150.5625 224.894531 157.59375 236.273438 169.066406 C 247.640625 180.550781 254.660156 196.324219 254.671875 213.867188 C 254.660156 231.421875 247.640625 247.195312 236.273438 258.667969 Z M 236.273438 258.667969 "/>
<path style=" stroke:none;fill-rule:nonzero;fill:rgb(60%,60%,60%);fill-opacity:1;" d="M 294.140625 148.242188 L 319.945312 148.242188 L 319.945312 174.046875 L 294.140625 174.046875 Z M 294.140625 148.242188 "/>
</g>
</svg>
